<?xml version="1.0" encoding="UTF-8" standalone="no"?>
<svg
   width="120"
   height="125"
   viewBox="0 0 240 250"
   version="1.1"
   id="svg2"
   sodipodi:docname="HumanRightsLogoEdited2.svg"
   inkscape:export-filename="HumanRightsLogoEdited.png"
   inkscape:export-xdpi="96"
   inkscape:export-ydpi="96"
   inkscape:version="1.3 (0e150ed6c4, 2023-07-21)"
   xmlns:inkscape="http://www.inkscape.org/namespaces/inkscape"
   xmlns:sodipodi="http://sodipodi.sourceforge.net/DTD/sodipodi-0.dtd"
   xmlns:xlink="http://www.w3.org/1999/xlink"
   xmlns="http://www.w3.org/2000/svg"
   xmlns:svg="http://www.w3.org/2000/svg">
  <sodipodi:namedview
     id="namedview2"
     pagecolor="#505050"
     bordercolor="#ffffff"
     borderopacity="1"
     inkscape:showpageshadow="0"
     inkscape:pageopacity="0"
     inkscape:pagecheckerboard="1"
     inkscape:deskcolor="#505050"
     showgrid="false"
     inkscape:zoom="6.7712545"
     inkscape:cx="52.870557"
     inkscape:cy="75.6876"
     inkscape:window-width="2560"
     inkscape:window-height="1371"
     inkscape:window-x="0"
     inkscape:window-y="0"
     inkscape:window-maximized="1"
     inkscape:current-layer="svg2" />
  <defs
     id="defs2">
    <linearGradient
       id="linearGradient2"
       inkscape:collect="always">
      <stop
         style="stop-color:#6bc799;stop-opacity:1;"
         offset="0"
         id="stop3" />
      <stop
         style="stop-color:#389466;stop-opacity:1;"
         offset="1"
         id="stop4" />
    </linearGradient>
    <radialGradient
       cx="90"
       cy="158"
       r="130"
       id="g"
       gradientUnits="userSpaceOnUse">
      <stop
         stop-color="#006994"
         offset="0"
         id="stop1" />
      <stop
         stop-color="#009adc"
         offset="1"
         id="stop2" />
    </radialGradient>
    <linearGradient
       inkscape:collect="always"
       xlink:href="#linearGradient2"
       id="linearGradient4"
       x1="0"
       y1="125"
       x2="240.17786"
       y2="125"
       gradientUnits="userSpaceOnUse" />
  </defs>
  <path
     d="m0,162c11-21 30-24 43-19 11,4 21,15 30,27 7,8 23,34 41,21 9-7 2-22-6-27-17-12-26-18-26-35 0-15 23-86 34-129 17,10 23,24 23,36 0,19-30,72-19,89l75-93c11,16 14,27 10,37-11,26-67,65-58,82l91-50c7,19-4,36-17,43-26,14-54,21-54,35h62c-6,17-15,22-25,22-29-2-35-1-46,16-10,15-27,33-53,33C76,250 58,229 45,204 34,183 20,167 0,162z"
     fill="url(#g)"
     id="path2"
     style="fill:url(#linearGradient4)" />
</svg>
